<?xml version="1.0" standalone="no"?>
<!DOCTYPE svg PUBLIC "-//W3C//DTD SVG 1.1//EN"
"http://www.w3.org/Graphics/SVG/1.1/DTD/svg11.dtd">

<svg width="432" height="407" view_box="0 0 432 407"
xmlns="http://www.w3.org/2000/svg"
xmlns:link="http://www.w3.org/1999/xlink">\n\n<desc>Généré par Mocodo 2.3.7 le Thu, 14 Jan 2021 06:07:10</desc>

<rect id="frame" x="0" y="0" width="432" height="407" fill="#f7f7f7" stroke="none" stroke-width="0"/>

<!-- Association was -->
<line x1="246" y1="195" x2="140" y2="195" stroke="#8073ac" stroke-width="2"/>
<text x="181" y="212.0" fill="#b35806" font-family="Verdana" font-size="12">1,N</text>
<line x1="46" y1="195" x2="140" y2="195" stroke="#8073ac" stroke-width="2"/>
<text x="88" y="212.0" fill="#b35806" font-family="Verdana" font-size="12">0,N</text>
<g id="association-was">
	<path d="M 145 170 a 14 14 90 0 1 14 14 V 195 h -38 V 184 a 14 14 90 0 1 14 -14" fill="#b2abd2" stroke="#b2abd2" stroke-width="0"/>
	<path d="M 159 195.0 v 11 a 14 14 90 0 1 -14 14 H 135 a 14 14 90 0 1 -14 -14 V 195.0 H 38" fill="#d8daeb" stroke="#d8daeb" stroke-width="0"/>
	<rect x="121" y="170" width="38" height="50" fill="none" rx="14" stroke="#8073ac" stroke-width="2"/>
	<line x1="121" y1="195" x2="159" y2="195" stroke="#8073ac" stroke-width="1"/>
	<text x="128" y="187.7" fill="#000000" font-family="Verdana" font-size="12">was</text>
</g>

<!-- Association took place -->
<line x1="246" y1="195" x2="375" y2="195" stroke="#8073ac" stroke-width="2"/>
<text x="289" y="212.0" fill="#b35806" font-family="Verdana" font-size="12">1,1</text>
<line x1="375" y1="60" x2="375" y2="195" stroke="#8073ac" stroke-width="2"/>
<text x="380.0" y="128" fill="#b35806" font-family="Verdana" font-size="12">0,N</text>
<g id="association-took place">
	<path d="M 400 170 a 14 14 90 0 1 14 14 V 195 h -78 V 184 a 14 14 90 0 1 14 -14" fill="#b2abd2" stroke="#b2abd2" stroke-width="0"/>
	<path d="M 414 195.0 v 11 a 14 14 90 0 1 -14 14 H 350 a 14 14 90 0 1 -14 -14 V 195.0 H 78" fill="#d8daeb" stroke="#d8daeb" stroke-width="0"/>
	<rect x="336" y="170" width="78" height="50" fill="none" rx="14" stroke="#8073ac" stroke-width="2"/>
	<line x1="336" y1="195" x2="414" y2="195" stroke="#8073ac" stroke-width="1"/>
	<text x="343" y="187.7" fill="#000000" font-family="Verdana" font-size="12">took place</text>
</g>

<!-- Association shot -->
<line x1="46" y1="195" x2="140" y2="60" stroke="#8073ac" stroke-width="2"/>
<text x="88" y="153.553054605" fill="#b35806" font-family="Verdana" font-size="12">0,N</text>
<line x1="246" y1="195" x2="140" y2="60" stroke="#8073ac" stroke-width="2"/>
<text x="181" y="157.727463212" fill="#b35806" font-family="Verdana" font-size="12">0,N</text>
<line x1="46" y1="60" x2="140" y2="60" stroke="#8073ac" stroke-width="2"/>
<text x="88" y="77.0" fill="#b35806" font-family="Verdana" font-size="12">1,1</text>
<g id="association-shot">
	<path d="M 147 35 a 14 14 90 0 1 14 14 V 60 h -42 V 49 a 14 14 90 0 1 14 -14" fill="#b2abd2" stroke="#b2abd2" stroke-width="0"/>
	<path d="M 161 60.0 v 11 a 14 14 90 0 1 -14 14 H 133 a 14 14 90 0 1 -14 -14 V 60.0 H 42" fill="#d8daeb" stroke="#d8daeb" stroke-width="0"/>
	<rect x="119" y="35" width="42" height="50" fill="none" rx="14" stroke="#8073ac" stroke-width="2"/>
	<line x1="119" y1="60" x2="161" y2="60" stroke="#8073ac" stroke-width="1"/>
	<text x="126" y="52.7" fill="#000000" font-family="Verdana" font-size="12">shot</text>
</g>

<!-- Association wrote -->
<line x1="46" y1="339" x2="140" y2="339" stroke="#8073ac" stroke-width="2"/>
<text x="88" y="356.0" fill="#b35806" font-family="Verdana" font-size="12">1,1</text>
<line x1="246" y1="195" x2="140" y2="339" stroke="#8073ac" stroke-width="2"/>
<text x="181" y="244.19091644" fill="#b35806" font-family="Verdana" font-size="12">0,N</text>
<line x1="46" y1="195" x2="140" y2="339" stroke="#8073ac" stroke-width="2"/>
<text x="88" y="248.695910796" fill="#b35806" font-family="Verdana" font-size="12">0,N</text>
<g id="association-wrote">
	<path d="M 151 314 a 14 14 90 0 1 14 14 V 339 h -50 V 328 a 14 14 90 0 1 14 -14" fill="#b2abd2" stroke="#b2abd2" stroke-width="0"/>
	<path d="M 165 339.0 v 11 a 14 14 90 0 1 -14 14 H 129 a 14 14 90 0 1 -14 -14 V 339.0 H 50" fill="#d8daeb" stroke="#d8daeb" stroke-width="0"/>
	<rect x="115" y="314" width="50" height="50" fill="none" rx="14" stroke="#8073ac" stroke-width="2"/>
	<line x1="115" y1="339" x2="165" y2="339" stroke="#8073ac" stroke-width="1"/>
	<text x="122" y="331.7" fill="#000000" font-family="Verdana" font-size="12">wrote</text>
</g>

<!-- Association performed by -->
<line x1="246" y1="195" x2="246" y2="339" stroke="#8073ac" stroke-width="2"/>
<text x="251.0" y="288" fill="#b35806" font-family="Verdana" font-size="12">1,1</text>
<line x1="375" y1="339" x2="246" y2="339" stroke="#8073ac" stroke-width="2"/>
<text x="300" y="356.0" fill="#b35806" font-family="Verdana" font-size="12">0,N</text>
<g id="association-performed by">
	<path d="M 281 314 a 14 14 90 0 1 14 14 V 339 h -98 V 328 a 14 14 90 0 1 14 -14" fill="#b2abd2" stroke="#b2abd2" stroke-width="0"/>
	<path d="M 295 339.0 v 11 a 14 14 90 0 1 -14 14 H 211 a 14 14 90 0 1 -14 -14 V 339.0 H 98" fill="#d8daeb" stroke="#d8daeb" stroke-width="0"/>
	<rect x="197" y="314" width="98" height="50" fill="none" rx="14" stroke="#8073ac" stroke-width="2"/>
	<line x1="197" y1="339" x2="295" y2="339" stroke="#8073ac" stroke-width="1"/>
	<text x="204" y="331.7" fill="#000000" font-family="Verdana" font-size="12">performed by</text>
</g>

<!-- Entity PICTURE -->
<g id="entity-PICTURE">
	<g id="frame-PICTURE">
		<rect x="9" y="18" width="74" height="25" fill="#fdb863" stroke="#fdb863" stroke-width="0"/>
		<rect x="9" y="43.0" width="74" height="59" fill="#fee0b6" stroke="#fee0b6" stroke-width="0"/>
		<rect x="9" y="18" width="74" height="84" fill="none" stroke="#e08214" stroke-width="2"/>
		<line x1="9" y1="43" x2="83" y2="43" stroke="#e08214" stroke-width="1"/>
	</g>
	<text x="19" y="35.7" fill="#000000" font-family="Verdana" font-size="12">PICTURE</text>
	<text x="14" y="60.8" fill="#000000" font-family="Verdana" font-size="12">path</text>
	<line x1="14" y1="63" x2="42" y2="63" stroke="#000000" stroke-width="1"/>
	<text x="14" y="77.8" fill="#000000" font-family="Verdana" font-size="12">createdAt</text>
	<text x="14" y="94.8" fill="#000000" font-family="Verdana" font-size="12">updatedAt</text>
</g>

<!-- Entity COUNTRY -->
<g id="entity-COUNTRY">
	<g id="frame-COUNTRY">
		<rect x="331" y="9" width="88" height="25" fill="#fdb863" stroke="#fdb863" stroke-width="0"/>
		<rect x="331" y="34.0" width="88" height="77" fill="#fee0b6" stroke="#fee0b6" stroke-width="0"/>
		<rect x="331" y="9" width="88" height="102" fill="none" stroke="#e08214" stroke-width="2"/>
		<line x1="331" y1="34" x2="419" y2="34" stroke="#e08214" stroke-width="1"/>
	</g>
	<text x="345" y="26.7" fill="#000000" font-family="Verdana" font-size="12">COUNTRY</text>
	<text x="336" y="51.7" fill="#000000" font-family="Verdana" font-size="12">name</text>
	<line x1="336" y1="54" x2="371" y2="54" stroke="#000000" stroke-width="1"/>
	<text x="336" y="68.8" fill="#000000" font-family="Verdana" font-size="12">countryCode</text>
	<text x="336" y="85.8" fill="#000000" font-family="Verdana" font-size="12">createdAt</text>
	<text x="336" y="102.8" fill="#000000" font-family="Verdana" font-size="12">updatedAt</text>
</g>

<!-- Entity REVIEW -->
<g id="entity-REVIEW">
	<g id="frame-REVIEW">
		<rect x="9" y="288" width="74" height="25" fill="#fdb863" stroke="#fdb863" stroke-width="0"/>
		<rect x="9" y="313.0" width="74" height="77" fill="#fee0b6" stroke="#fee0b6" stroke-width="0"/>
		<rect x="9" y="288" width="74" height="102" fill="none" stroke="#e08214" stroke-width="2"/>
		<line x1="9" y1="313" x2="83" y2="313" stroke="#e08214" stroke-width="1"/>
	</g>
	<text x="21" y="305.7" fill="#000000" font-family="Verdana" font-size="12">REVIEW</text>
	<text x="14" y="330.7" fill="#000000" font-family="Verdana" font-size="12">title</text>
	<line x1="14" y1="333" x2="38" y2="333" stroke="#000000" stroke-width="1"/>
	<text x="14" y="347.8" fill="#000000" font-family="Verdana" font-size="12">content</text>
	<text x="14" y="364.8" fill="#000000" font-family="Verdana" font-size="12">createdAt</text>
	<text x="14" y="381.8" fill="#000000" font-family="Verdana" font-size="12">updatedAt</text>
</g>

<!-- Entity BAND -->
<g id="entity-BAND">
	<g id="frame-BAND">
		<rect x="327" y="280" width="96" height="25" fill="#fdb863" stroke="#fdb863" stroke-width="0"/>
		<rect x="327" y="305.0" width="96" height="93" fill="#fee0b6" stroke="#fee0b6" stroke-width="0"/>
		<rect x="327" y="280" width="96" height="118" fill="none" stroke="#e08214" stroke-width="2"/>
		<line x1="327" y1="305" x2="423" y2="305" stroke="#e08214" stroke-width="1"/>
	</g>
	<text x="357" y="297.7" fill="#000000" font-family="Verdana" font-size="12">BAND</text>
	<text x="332" y="322.7" fill="#000000" font-family="Verdana" font-size="12">name</text>
	<line x1="332" y1="325" x2="367" y2="325" stroke="#000000" stroke-width="1"/>
	<text x="332" y="339.8" fill="#000000" font-family="Verdana" font-size="12">musicbrainzId</text>
	<text x="332" y="356.8" fill="#000000" font-family="Verdana" font-size="12">image</text>
	<text x="332" y="373.8" fill="#000000" font-family="Verdana" font-size="12">createdAt</text>
	<text x="332" y="390.8" fill="#000000" font-family="Verdana" font-size="12">updatedAt</text>
</g>

<!-- Entity USER -->
<g id="entity-USER">
	<g id="frame-USER">
		<rect x="9" y="127" width="74" height="25" fill="#fdb863" stroke="#fdb863" stroke-width="0"/>
		<rect x="9" y="152.0" width="74" height="111" fill="#fee0b6" stroke="#fee0b6" stroke-width="0"/>
		<rect x="9" y="127" width="74" height="136" fill="none" stroke="#e08214" stroke-width="2"/>
		<line x1="9" y1="152" x2="83" y2="152" stroke="#e08214" stroke-width="1"/>
	</g>
	<text x="29" y="144.7" fill="#000000" font-family="Verdana" font-size="12">USER</text>
	<text x="14" y="169.7" fill="#000000" font-family="Verdana" font-size="12">email</text>
	<line x1="14" y1="172" x2="48" y2="172" stroke="#000000" stroke-width="1"/>
	<text x="14" y="186.7" fill="#000000" font-family="Verdana" font-size="12">password</text>
	<text x="14" y="203.8" fill="#000000" font-family="Verdana" font-size="12">nickname</text>
	<text x="14" y="220.8" fill="#000000" font-family="Verdana" font-size="12">avatar</text>
	<text x="14" y="237.8" fill="#000000" font-family="Verdana" font-size="12">createdAt</text>
	<text x="14" y="254.8" fill="#000000" font-family="Verdana" font-size="12">updatedAt</text>
</g>

<!-- Entity EVENT -->
<g id="entity-EVENT">
	<g id="frame-EVENT">
		<rect x="208" y="119" width="76" height="25" fill="#fdb863" stroke="#fdb863" stroke-width="0"/>
		<rect x="208" y="144.0" width="76" height="127" fill="#fee0b6" stroke="#fee0b6" stroke-width="0"/>
		<rect x="208" y="119" width="76" height="152" fill="none" stroke="#e08214" stroke-width="2"/>
		<line x1="208" y1="144" x2="284" y2="144" stroke="#e08214" stroke-width="1"/>
	</g>
	<text x="225" y="136.7" fill="#000000" font-family="Verdana" font-size="12">EVENT</text>
	<text x="213" y="161.7" fill="#000000" font-family="Verdana" font-size="12">setlistId</text>
	<line x1="213" y1="164" x2="262" y2="164" stroke="#000000" stroke-width="1"/>
	<text x="213" y="178.7" fill="#000000" font-family="Verdana" font-size="12">bandName</text>
	<text x="213" y="195.8" fill="#000000" font-family="Verdana" font-size="12">date</text>
	<text x="213" y="212.8" fill="#000000" font-family="Verdana" font-size="12">venue</text>
	<text x="213" y="229.8" fill="#000000" font-family="Verdana" font-size="12">city</text>
	<text x="213" y="246.8" fill="#000000" font-family="Verdana" font-size="12">createdAt</text>
	<text x="213" y="263.8" fill="#000000" font-family="Verdana" font-size="12">updatedAt</text>
</g>
</svg>